<svg width="20" height="20" viewBox="0 0 20 20" fill="none" xmlns="http://www.w3.org/2000/svg">
<g clip-path="url(#clip0_2_35360)">
<path d="M4.16667 15.0001H15.8333V9.19258C15.8333 5.95675 13.2217 3.33341 10 3.33341C6.77833 3.33341 4.16667 5.95675 4.16667 9.19258V15.0001ZM10 1.66675C14.1417 1.66675 17.5 5.03592 17.5 9.19258V16.6667H2.5V9.19258C2.5 5.03592 5.85833 1.66675 10 1.66675ZM7.91667 17.5001H12.0833C12.0833 18.0526 11.8638 18.5825 11.4731 18.9732C11.0824 19.3639 10.5525 19.5834 10 19.5834C9.44747 19.5834 8.91756 19.3639 8.52686 18.9732C8.13616 18.5825 7.91667 18.0526 7.91667 17.5001Z" fill="#333333"/>
</g>
<defs>
<clipPath id="clip0_2_35360">
<rect width="20" height="20" fill="white"/>
</clipPath>
</defs>
</svg>
