<svg width="19" height="18" viewBox="0 0 19 18" fill="none" xmlns="http://www.w3.org/2000/svg">
<path d="M3.5 6H15.5V15.75C15.5 15.9489 15.421 16.1397 15.2803 16.2803C15.1397 16.421 14.9489 16.5 14.75 16.5H4.25C4.05109 16.5 3.86032 16.421 3.71967 16.2803C3.57902 16.1397 3.5 15.9489 3.5 15.75V6ZM5 7.5V15H14V7.5H5ZM7.25 9H8.75V13.5H7.25V9ZM10.25 9H11.75V13.5H10.25V9ZM5.75 3.75V2.25C5.75 2.05109 5.82902 1.86032 5.96967 1.71967C6.11032 1.57902 6.30109 1.5 6.5 1.5H12.5C12.6989 1.5 12.8897 1.57902 13.0303 1.71967C13.171 1.86032 13.25 2.05109 13.25 2.25V3.75H17V5.25H2V3.75H5.75ZM7.25 3V3.75H11.75V3H7.25Z" fill="#757575"/>
</svg>
