<svg width="19" height="18" viewBox="0 0 19 18" fill="none" xmlns="http://www.w3.org/2000/svg">
<g clip-path="url(#clip0_86_3533)">
<path d="M9.49999 2.25C13.544 2.25 16.9085 5.16 17.6142 9C16.9092 12.84 13.544 15.75 9.49999 15.75C5.45599 15.75 2.09149 12.84 1.38574 9C2.09074 5.16 5.45599 2.25 9.49999 2.25ZM9.49999 14.25C11.0296 14.2497 12.5138 13.7301 13.7096 12.7764C14.9055 11.8226 15.7422 10.4912 16.0827 9C15.7409 7.50998 14.9037 6.18 13.708 5.22752C12.5122 4.27504 11.0287 3.7564 9.49999 3.7564C7.97126 3.7564 6.48776 4.27504 5.29202 5.22752C4.09629 6.18 3.25907 7.50998 2.91724 9C3.25781 10.4912 4.0945 11.8226 5.29035 12.7764C6.4862 13.7301 7.97039 14.2497 9.49999 14.25ZM9.49999 12.375C8.60489 12.375 7.74644 12.0194 7.11351 11.3865C6.48057 10.7535 6.12499 9.89511 6.12499 9C6.12499 8.10489 6.48057 7.24645 7.11351 6.61351C7.74644 5.98058 8.60489 5.625 9.49999 5.625C10.3951 5.625 11.2535 5.98058 11.8865 6.61351C12.5194 7.24645 12.875 8.10489 12.875 9C12.875 9.89511 12.5194 10.7535 11.8865 11.3865C11.2535 12.0194 10.3951 12.375 9.49999 12.375ZM9.49999 10.875C9.99727 10.875 10.4742 10.6775 10.8258 10.3258C11.1774 9.97419 11.375 9.49728 11.375 9C11.375 8.50272 11.1774 8.02581 10.8258 7.67417C10.4742 7.32254 9.99727 7.125 9.49999 7.125C9.00271 7.125 8.5258 7.32254 8.17417 7.67417C7.82254 8.02581 7.62499 8.50272 7.62499 9C7.62499 9.49728 7.82254 9.97419 8.17417 10.3258C8.5258 10.6775 9.00271 10.875 9.49999 10.875Z" fill="#757575"/>
</g>
<defs>
<clipPath id="clip0_86_3533">
<rect width="18" height="18" fill="white" transform="translate(0.5)"/>
</clipPath>
</defs>
</svg>
