<svg width="20" height="20" viewBox="0 0 20 20" fill="none" xmlns="http://www.w3.org/2000/svg">
<g clip-path="url(#clip0_2_35345)">
<path d="M15.4166 8.33341L19.0833 17.5001H17.2875L16.2866 15.0001H12.8783L11.8791 17.5001H10.0841L13.75 8.33341H15.4166ZM8.33329 1.66675V3.33341H13.3333V5.00008H11.6933C11.0505 6.93515 10.0245 8.72093 8.67663 10.2509C9.27771 10.7873 9.92969 11.2637 10.6233 11.6734L9.99746 13.2384C9.10206 12.7306 8.26462 12.1267 7.49996 11.4376C6.01128 12.7849 4.24833 13.7936 2.33246 14.3942L1.88579 12.7867C3.52732 12.2633 5.03998 11.3995 6.32496 10.2517C5.37387 9.17503 4.58168 7.9678 3.97246 6.66675H5.83913C6.30359 7.52413 6.86051 8.32809 7.49996 9.06425C8.54171 7.8635 9.36271 6.48783 9.92496 5.00091L1.66663 5.00008V3.33341H6.66663V1.66675H8.33329ZM14.5833 10.7376L13.5441 13.3334H15.6208L14.5833 10.7376Z" fill="#5D5D5D"/>
</g>
<defs>
<clipPath id="clip0_2_35345">
<rect width="20" height="20" fill="white"/>
</clipPath>
</defs>
</svg>
