<svg width="20" height="21" viewBox="0 0 20 21" fill="none" xmlns="http://www.w3.org/2000/svg">
<g clip-path="url(#clip0_75_68)">
<path d="M3.33325 19.2507C3.33325 17.4826 4.03563 15.7869 5.28587 14.5367C6.53612 13.2864 8.23181 12.5841 9.99992 12.5841C11.768 12.5841 13.4637 13.2864 14.714 14.5367C15.9642 15.7869 16.6666 17.4826 16.6666 19.2507H3.33325ZM10.8333 14.3199V17.5841H14.7158C14.4179 16.7436 13.9009 15.9979 13.2184 15.424C12.5358 14.8502 11.7124 14.469 10.8333 14.3199ZM9.16658 17.5841V14.3199C8.28742 14.469 7.46401 14.8502 6.78146 15.424C6.09891 15.9979 5.58198 16.7436 5.28409 17.5841H9.16658ZM9.99992 11.7507C7.23742 11.7507 4.99992 9.51323 4.99992 6.75073C4.99992 3.98823 7.23742 1.75073 9.99992 1.75073C12.7624 1.75073 14.9999 3.98823 14.9999 6.75073C14.9999 9.51323 12.7624 11.7507 9.99992 11.7507ZM9.99992 10.0841C11.8416 10.0841 13.3333 8.5924 13.3333 6.75073C13.3333 4.90907 11.8416 3.4174 9.99992 3.4174C8.15825 3.4174 6.66659 4.90907 6.66659 6.75073C6.66659 8.5924 8.15825 10.0841 9.99992 10.0841Z" fill="#333333"/>
</g>
<defs>
<clipPath id="clip0_75_68">
<rect width="20" height="20" fill="white" transform="translate(0 0.91748)"/>
</clipPath>
</defs>
</svg>
