<svg width="20" height="21" viewBox="0 0 20 21" fill="none" xmlns="http://www.w3.org/2000/svg">
<g clip-path="url(#clip0_75_105)">
<path d="M15.0001 6.75081H17.5001C17.7211 6.75081 17.9331 6.83861 18.0893 6.99489C18.2456 7.15117 18.3334 7.36313 18.3334 7.58415V17.5841C18.3334 17.8052 18.2456 18.0171 18.0893 18.1734C17.9331 18.3297 17.7211 18.4175 17.5001 18.4175H2.50008C2.27907 18.4175 2.06711 18.3297 1.91083 18.1734C1.75455 18.0171 1.66675 17.8052 1.66675 17.5841V4.25081C1.66675 4.0298 1.75455 3.81784 1.91083 3.66156C2.06711 3.50528 2.27907 3.41748 2.50008 3.41748H15.0001V6.75081ZM3.33341 8.41748V16.7508H16.6667V8.41748H3.33341ZM3.33341 5.08415V6.75081H13.3334V5.08415H3.33341ZM12.5001 11.7508H15.0001V13.4175H12.5001V11.7508Z" fill="#333333"/>
</g>
<defs>
<clipPath id="clip0_75_105">
<rect width="20" height="20" fill="white" transform="translate(0 0.91748)"/>
</clipPath>
</defs>
</svg>
