<svg width="20" height="21" viewBox="0 0 20 21" fill="none" xmlns="http://www.w3.org/2000/svg">
<g clip-path="url(#clip0_75_88)">
<path d="M1.66675 10.9174C1.66675 10.1966 1.75841 9.49824 1.93008 8.83074C2.39047 8.85494 2.84858 8.75137 3.25378 8.53147C3.65898 8.31156 3.99548 7.9839 4.22609 7.5847C4.45669 7.18549 4.57242 6.7303 4.56048 6.26943C4.54853 5.80856 4.40939 5.35997 4.15841 4.97324C5.16587 3.98205 6.40908 3.26366 7.77092 2.88574C7.98007 3.29697 8.29895 3.6423 8.69223 3.8835C9.08552 4.1247 9.53789 4.25237 9.99925 4.25237C10.4606 4.25237 10.913 4.1247 11.3063 3.8835C11.6996 3.6423 12.0184 3.29697 12.2276 2.88574C13.5894 3.26366 14.8326 3.98205 15.8401 4.97324C15.5888 5.36004 15.4495 5.8088 15.4374 6.26988C15.4254 6.73096 15.5412 7.18638 15.7719 7.58575C16.0026 7.98513 16.3394 8.31288 16.7448 8.53275C17.1503 8.75263 17.6087 8.85605 18.0693 8.83158C18.2409 9.49824 18.3326 10.1966 18.3326 10.9174C18.3326 11.6382 18.2409 12.3366 18.0693 13.0041C17.6088 12.9797 17.1506 13.0832 16.7452 13.303C16.3399 13.5228 16.0033 13.8505 15.7726 14.2497C15.5419 14.649 15.4261 15.1042 15.438 15.5652C15.4499 16.0261 15.5891 16.4748 15.8401 16.8616C14.8326 17.8528 13.5894 18.5712 12.2276 18.9491C12.0184 18.5378 11.6996 18.1925 11.3063 17.9513C10.913 17.7101 10.4606 17.5824 9.99925 17.5824C9.53789 17.5824 9.08552 17.7101 8.69223 17.9513C8.29895 18.1925 7.98007 18.5378 7.77092 18.9491C6.40908 18.5712 5.16587 17.8528 4.15841 16.8616C4.40967 16.4748 4.54902 16.026 4.56106 15.5649C4.57309 15.1039 4.45733 14.6484 4.22659 14.2491C3.99585 13.8497 3.65913 13.5219 3.25367 13.3021C2.84821 13.0822 2.38983 12.9788 1.92925 13.0032C1.75841 12.3374 1.66675 11.6391 1.66675 10.9174ZM5.67008 13.4174C6.19508 14.3266 6.34508 15.3724 6.14008 16.3541C6.48008 16.5957 6.84175 16.8049 7.22091 16.9791C7.9848 16.2948 8.97451 15.9167 10.0001 15.9174C11.0501 15.9174 12.0317 16.3099 12.7792 16.9791C13.1584 16.8049 13.5201 16.5957 13.8601 16.3541C13.6496 15.3507 13.817 14.305 14.3301 13.4174C14.8423 12.5294 15.6643 11.8617 16.6384 11.5424C16.677 11.1266 16.677 10.7082 16.6384 10.2924C15.664 9.97329 14.8416 9.30559 14.3292 8.41741C13.8161 7.52985 13.6488 6.48411 13.8592 5.48074C13.5193 5.23901 13.1575 5.02976 12.7784 4.85574C12.0147 5.53985 11.0254 5.91792 10.0001 5.91741C8.97451 5.91812 7.9848 5.54004 7.22091 4.85574C6.84186 5.02976 6.47999 5.23902 6.14008 5.48074C6.35055 6.48411 6.18319 7.52985 5.67008 8.41741C5.15789 9.30543 4.3359 9.97311 3.36175 10.2924C3.32321 10.7082 3.32321 11.1266 3.36175 11.5424C4.33621 11.8615 5.15852 12.5292 5.67091 13.4174H5.67008ZM10.0001 13.4174C9.33704 13.4174 8.70116 13.154 8.23231 12.6852C7.76347 12.2163 7.50008 11.5805 7.50008 10.9174C7.50008 10.2544 7.76347 9.61848 8.23231 9.14964C8.70116 8.6808 9.33704 8.41741 10.0001 8.41741C10.6631 8.41741 11.299 8.6808 11.7678 9.14964C12.2367 9.61848 12.5001 10.2544 12.5001 10.9174C12.5001 11.5805 12.2367 12.2163 11.7678 12.6852C11.299 13.154 10.6631 13.4174 10.0001 13.4174ZM10.0001 11.7507C10.2211 11.7507 10.4331 11.6629 10.5893 11.5067C10.7456 11.3504 10.8334 11.1384 10.8334 10.9174C10.8334 10.6964 10.7456 10.4844 10.5893 10.3282C10.4331 10.1719 10.2211 10.0841 10.0001 10.0841C9.77907 10.0841 9.56711 10.1719 9.41083 10.3282C9.25455 10.4844 9.16675 10.6964 9.16675 10.9174C9.16675 11.1384 9.25455 11.3504 9.41083 11.5067C9.56711 11.6629 9.77907 11.7507 10.0001 11.7507Z" fill="#333333"/>
</g>
<defs>
<clipPath id="clip0_75_88">
<rect width="20" height="20" fill="white" transform="translate(0 0.91748)"/>
</clipPath>
</defs>
</svg>
