<svg width="20" height="20" viewBox="0 0 20 20" fill="none" xmlns="http://www.w3.org/2000/svg">
<g clip-path="url(#clip0_2_35371)">
<path d="M9.99998 0.833252L17.9166 5.41658V14.5833L9.99998 19.1666L2.08331 14.5833V5.41658L9.99998 0.833252ZM9.99998 2.75909L3.74998 6.37742V13.6224L9.99998 17.2407L16.25 13.6224V6.37742L9.99998 2.75909ZM9.99998 13.3333C9.11592 13.3333 8.26808 12.9821 7.64296 12.3569C7.01784 11.7318 6.66665 10.884 6.66665 9.99992C6.66665 9.11586 7.01784 8.26802 7.64296 7.6429C8.26808 7.01777 9.11592 6.66658 9.99998 6.66658C10.884 6.66658 11.7319 7.01777 12.357 7.6429C12.9821 8.26802 13.3333 9.11586 13.3333 9.99992C13.3333 10.884 12.9821 11.7318 12.357 12.3569C11.7319 12.9821 10.884 13.3333 9.99998 13.3333ZM9.99998 11.6666C10.442 11.6666 10.8659 11.491 11.1785 11.1784C11.4911 10.8659 11.6666 10.4419 11.6666 9.99992C11.6666 9.55789 11.4911 9.13397 11.1785 8.82141C10.8659 8.50885 10.442 8.33325 9.99998 8.33325C9.55795 8.33325 9.13403 8.50885 8.82147 8.82141C8.50891 9.13397 8.33331 9.55789 8.33331 9.99992C8.33331 10.4419 8.50891 10.8659 8.82147 11.1784C9.13403 11.491 9.55795 11.6666 9.99998 11.6666Z" fill="#333333"/>
</g>
<defs>
<clipPath id="clip0_2_35371">
<rect width="20" height="20" fill="white"/>
</clipPath>
</defs>
</svg>
