<svg width="20" height="20" viewBox="0 0 20 20" fill="none" xmlns="http://www.w3.org/2000/svg">
<g clip-path="url(#clip0_2_35356)">
<path d="M10 14.9999C8.67396 14.9999 7.40219 14.4731 6.46451 13.5355C5.52682 12.5978 5.00004 11.326 5.00004 9.99992C5.00004 8.67384 5.52682 7.40207 6.46451 6.46438C7.40219 5.5267 8.67396 4.99992 10 4.99992C11.3261 4.99992 12.5979 5.5267 13.5356 6.46438C14.4733 7.40207 15 8.67384 15 9.99992C15 11.326 14.4733 12.5978 13.5356 13.5355C12.5979 14.4731 11.3261 14.9999 10 14.9999ZM10 13.3333C10.8841 13.3333 11.7319 12.9821 12.3571 12.3569C12.9822 11.7318 13.3334 10.884 13.3334 9.99992C13.3334 9.11586 12.9822 8.26802 12.3571 7.6429C11.7319 7.01777 10.8841 6.66658 10 6.66658C9.11598 6.66658 8.26814 7.01777 7.64302 7.6429C7.0179 8.26802 6.66671 9.11586 6.66671 9.99992C6.66671 10.884 7.0179 11.7318 7.64302 12.3569C8.26814 12.9821 9.11598 13.3333 10 13.3333ZM9.16671 0.833252H10.8334V3.33325H9.16671V0.833252ZM9.16671 16.6666H10.8334V19.1666H9.16671V16.6666ZM2.92921 4.10742L4.10754 2.92909L5.87504 4.69658L4.69671 5.87492L2.92921 4.10825V4.10742ZM14.125 15.3033L15.3034 14.1249L17.0709 15.8924L15.8925 17.0708L14.125 15.3033ZM15.8925 2.92825L17.0709 4.10742L15.3034 5.87492L14.125 4.69658L15.8925 2.92909V2.92825ZM4.69671 14.1249L5.87504 15.3033L4.10754 17.0708L2.92921 15.8924L4.69671 14.1249ZM19.1667 9.16658V10.8333H16.6667V9.16658H19.1667ZM3.33337 9.16658V10.8333H0.833374V9.16658H3.33337Z" fill="#333333"/>
</g>
<defs>
<clipPath id="clip0_2_35356">
<rect width="20" height="20" fill="white"/>
</clipPath>
</defs>
</svg>
