<svg width="156" height="30" viewBox="0 0 156 30" fill="none" xmlns="http://www.w3.org/2000/svg">
<circle cx="15.4999" cy="14.9999" r="3.87097" fill="#333333"/>
<path d="M19.3708 14.9999C19.3708 15.5082 19.2707 16.0116 19.0762 16.4812C18.8816 16.9509 18.5965 17.3776 18.2371 17.7371C17.8776 18.0965 17.4509 18.3816 16.9812 18.5762C16.5116 18.7707 16.0082 18.8708 15.4999 18.8708C14.9915 18.8708 14.4882 18.7707 14.0185 18.5762C13.5489 18.3816 13.1221 18.0965 12.7627 17.7371C12.4032 17.3776 12.1181 16.9509 11.9236 16.4812C11.729 16.0116 11.6289 15.5082 11.6289 14.9999L15.4999 14.9999H19.3708Z" fill="#636DE8"/>
<path d="M30.5 15C30.5 17.9667 29.6203 20.8668 27.972 23.3336C26.3238 25.8003 23.9811 27.7229 21.2403 28.8582C18.4994 29.9935 15.4834 30.2906 12.5736 29.7118C9.66393 29.133 6.99119 27.7044 4.8934 25.6066C2.79561 23.5088 1.367 20.8361 0.788221 17.9264C0.209442 15.0166 0.506493 12.0006 1.64181 9.25975C2.77712 6.51886 4.69971 4.17618 7.16645 2.52796C9.63318 0.879735 12.5333 -3.53778e-08 15.5 0V5.30278C13.5821 5.30278 11.7072 5.87152 10.1125 6.93706C8.51782 8.0026 7.2749 9.5171 6.54094 11.289C5.80698 13.061 5.61494 15.0108 5.98911 16.8918C6.36328 18.7729 7.28685 20.5008 8.64303 21.857C9.99921 23.2131 11.7271 24.1367 13.6082 24.5109C15.4892 24.8851 17.439 24.693 19.211 23.9591C20.9829 23.2251 22.4974 21.9822 23.5629 20.3875C24.6285 18.7928 25.1972 16.9179 25.1972 15H30.5Z" fill="#333333"/>
<path d="M0.5 15C0.5 11.0218 2.08035 7.20644 4.8934 4.3934C7.70644 1.58035 11.5218 -4.74401e-08 15.5 0V5.30278C12.9281 5.30278 10.4616 6.32445 8.64303 8.14303C6.82445 9.96161 5.80278 12.4281 5.80278 15H0.5Z" fill="#636DE8"/>
<path d="M48.3239 14.9091C48.3239 15.983 48.13 16.911 47.7422 17.6932C47.3544 18.4754 46.8224 19.0786 46.1463 19.5028C45.4702 19.9271 44.6979 20.1392 43.8295 20.1392C42.9612 20.1392 42.1889 19.9271 41.5128 19.5028C40.8366 19.0786 40.3047 18.4754 39.9169 17.6932C39.5291 16.911 39.3352 15.983 39.3352 14.9091C39.3352 13.8352 39.5291 12.9072 39.9169 12.125C40.3047 11.3428 40.8366 10.7396 41.5128 10.3153C42.1889 9.8911 42.9612 9.67898 43.8295 9.67898C44.6979 9.67898 45.4702 9.8911 46.1463 10.3153C46.8224 10.7396 47.3544 11.3428 47.7422 12.125C48.13 12.9072 48.3239 13.8352 48.3239 14.9091ZM47.1307 14.9091C47.1307 14.0275 46.9832 13.2834 46.6882 12.6768C46.3965 12.0703 46.0005 11.6113 45.5 11.2997C45.0028 10.9882 44.446 10.8324 43.8295 10.8324C43.2131 10.8324 42.6546 10.9882 42.1541 11.2997C41.657 11.6113 41.2609 12.0703 40.9659 12.6768C40.6742 13.2834 40.5284 14.0275 40.5284 14.9091C40.5284 15.7907 40.6742 16.5348 40.9659 17.1413C41.2609 17.7479 41.657 18.2069 42.1541 18.5185C42.6546 18.83 43.2131 18.9858 43.8295 18.9858C44.446 18.9858 45.0028 18.83 45.5 18.5185C46.0005 18.2069 46.3965 17.7479 46.6882 17.1413C46.9832 16.5348 47.1307 15.7907 47.1307 14.9091ZM51.4112 15.4062V20H50.2379V12.3636H51.3714V13.5568H51.4709C51.6499 13.169 51.9216 12.8575 52.2862 12.6222C52.6508 12.3835 53.1214 12.2642 53.6982 12.2642C54.2152 12.2642 54.6676 12.3703 55.0554 12.5824C55.4432 12.7912 55.7448 13.1094 55.9602 13.5369C56.1757 13.9612 56.2834 14.4981 56.2834 15.1477V20H55.1101V15.2273C55.1101 14.6274 54.9543 14.16 54.6428 13.8253C54.3312 13.4872 53.9036 13.3182 53.3601 13.3182C52.9856 13.3182 52.6508 13.3994 52.3558 13.5618C52.0642 13.7242 51.8338 13.9612 51.6648 14.2727C51.4957 14.5843 51.4112 14.9621 51.4112 15.4062ZM61.6291 20.1591C60.8933 20.1591 60.2586 19.9967 59.725 19.6719C59.1947 19.3438 58.7853 18.8864 58.497 18.2997C58.2119 17.7098 58.0694 17.0237 58.0694 16.2415C58.0694 15.4593 58.2119 14.7699 58.497 14.1733C58.7853 13.5734 59.1864 13.1061 59.7001 12.7713C60.2172 12.4332 60.8204 12.2642 61.5098 12.2642C61.9075 12.2642 62.3002 12.3305 62.688 12.4631C63.0758 12.5956 63.4288 12.8111 63.747 13.1094C64.0652 13.4044 64.3187 13.7955 64.5076 14.2827C64.6966 14.7699 64.791 15.3698 64.791 16.0824V16.5795H58.9047V15.5653H63.5978C63.5978 15.1345 63.5117 14.75 63.3393 14.4119C63.1703 14.0739 62.9283 13.8071 62.6135 13.6115C62.3019 13.416 61.934 13.3182 61.5098 13.3182C61.0424 13.3182 60.6381 13.4342 60.2967 13.6662C59.9586 13.8949 59.6984 14.1932 59.5162 14.5611C59.3339 14.929 59.2427 15.3234 59.2427 15.7443V16.4205C59.2427 16.9972 59.3422 17.486 59.541 17.8871C59.7432 18.2848 60.0233 18.5881 60.3812 18.7969C60.7392 19.0024 61.1551 19.1051 61.6291 19.1051C61.9373 19.1051 62.2157 19.062 62.4643 18.9759C62.7162 18.8864 62.9333 18.7538 63.1156 18.5781C63.2979 18.3991 63.4387 18.1771 63.5382 17.9119L64.6717 18.2301C64.5524 18.6146 64.3519 18.9527 64.0701 19.2443C63.7884 19.5327 63.4404 19.758 63.0261 19.9205C62.6118 20.0795 62.1461 20.1591 61.6291 20.1591ZM66.7349 20V9.81818H67.9679V14.3523H73.3968V9.81818H74.6298V20H73.3968V15.446H67.9679V20H66.7349ZM77.0982 20V9.81818H80.5385C81.334 9.81818 81.9869 9.95407 82.4973 10.2259C83.0078 10.4943 83.3856 10.8639 83.6309 11.3345C83.8761 11.8052 83.9988 12.3404 83.9988 12.9403C83.9988 13.5402 83.8761 14.0722 83.6309 14.5362C83.3856 15.0002 83.0094 15.3648 82.5023 15.63C81.9952 15.8918 81.3472 16.0227 80.5584 16.0227H77.7743V14.9091H80.5186C81.0622 14.9091 81.4997 14.8295 81.8311 14.6705C82.1659 14.5114 82.4078 14.286 82.557 13.9943C82.7095 13.6993 82.7857 13.348 82.7857 12.9403C82.7857 12.5327 82.7095 12.1764 82.557 11.8714C82.4045 11.5665 82.1609 11.3312 81.8262 11.1655C81.4914 10.9964 81.0489 10.9119 80.4988 10.9119H78.3311V20H77.0982ZM81.8908 15.4261L84.3965 20H82.9647L80.4988 15.4261H81.8908ZM86.0533 9.81818H87.5249L90.9851 18.2699H91.1044L94.5646 9.81818H96.0362V20H94.8828V12.2642H94.7834L91.6016 20H90.4879L87.3061 12.2642H87.2067V20H86.0533V9.81818Z" fill="#636DE8"/>
<path d="M102.724 14.3622V15.456H98.2697V14.3622H102.724ZM104.948 20V9.81818H111.093V10.9119H106.181V14.3523H110.775V15.446H106.181V18.9062H111.172V20H104.948ZM114.886 20L112.559 12.3636H113.792L115.443 18.2102H115.522L117.153 12.3636H118.406L120.017 18.1903H120.096L121.747 12.3636H122.98L120.653 20H119.5L117.829 14.1335H117.71L116.039 20H114.886ZM126.778 20.179C126.294 20.179 125.855 20.0878 125.461 19.9055C125.066 19.7199 124.753 19.4531 124.521 19.1051C124.289 18.7538 124.173 18.3295 124.173 17.8324C124.173 17.3949 124.259 17.0402 124.431 16.7685C124.604 16.4934 124.834 16.2779 125.123 16.1222C125.411 15.9664 125.729 15.8504 126.077 15.7741C126.428 15.6946 126.781 15.6316 127.136 15.5852C127.6 15.5256 127.976 15.4808 128.265 15.451C128.556 15.4179 128.768 15.3632 128.901 15.2869C129.037 15.2107 129.105 15.0781 129.105 14.8892V14.8494C129.105 14.3589 128.971 13.9777 128.702 13.706C128.437 13.4342 128.034 13.2983 127.494 13.2983C126.934 13.2983 126.495 13.4209 126.176 13.6662C125.858 13.9115 125.635 14.1733 125.505 14.4517L124.392 14.054C124.591 13.59 124.856 13.2287 125.187 12.9702C125.522 12.7083 125.886 12.526 126.281 12.4233C126.679 12.3172 127.07 12.2642 127.454 12.2642C127.699 12.2642 127.981 12.294 128.299 12.3537C128.621 12.41 128.931 12.5277 129.229 12.7067C129.531 12.8857 129.781 13.1558 129.98 13.517C130.179 13.8783 130.278 14.3622 130.278 14.9688V20H129.105V18.9659H129.045C128.966 19.1316 128.833 19.3089 128.647 19.4979C128.462 19.6868 128.215 19.8475 127.907 19.9801C127.598 20.1127 127.222 20.179 126.778 20.179ZM126.957 19.125C127.421 19.125 127.812 19.0339 128.13 18.8516C128.452 18.6693 128.694 18.4339 128.856 18.1456C129.022 17.8572 129.105 17.554 129.105 17.2358V16.1619C129.055 16.2216 128.946 16.2763 128.777 16.326C128.611 16.3724 128.419 16.4138 128.2 16.4503C127.984 16.4834 127.774 16.5133 127.569 16.5398C127.366 16.563 127.202 16.5829 127.076 16.5994C126.771 16.6392 126.486 16.7038 126.221 16.7933C125.959 16.8795 125.747 17.0104 125.585 17.1861C125.426 17.3584 125.346 17.5937 125.346 17.892C125.346 18.2997 125.497 18.608 125.799 18.8168C126.104 19.0223 126.49 19.125 126.957 19.125ZM135.502 23.0227C134.935 23.0227 134.448 22.9498 134.04 22.804C133.633 22.6615 133.293 22.4725 133.021 22.2372C132.753 22.0052 132.539 21.7566 132.38 21.4915L133.314 20.8352C133.421 20.9744 133.555 21.1335 133.717 21.3125C133.88 21.4948 134.102 21.6522 134.383 21.7848C134.668 21.9207 135.041 21.9886 135.502 21.9886C136.118 21.9886 136.627 21.8395 137.028 21.5412C137.429 21.2429 137.63 20.7756 137.63 20.1392V18.5881H137.53C137.444 18.7273 137.322 18.8996 137.162 19.1051C137.007 19.3073 136.781 19.4879 136.486 19.647C136.195 19.8028 135.8 19.8807 135.303 19.8807C134.687 19.8807 134.133 19.7348 133.643 19.4432C133.155 19.1515 132.769 18.7273 132.484 18.1705C132.202 17.6136 132.062 16.9375 132.062 16.142C132.062 15.3598 132.199 14.6787 132.474 14.0987C132.749 13.5154 133.132 13.0646 133.623 12.7464C134.113 12.425 134.68 12.2642 135.323 12.2642C135.82 12.2642 136.215 12.3471 136.506 12.5128C136.801 12.6752 137.027 12.8608 137.182 13.0696C137.341 13.2751 137.464 13.4441 137.55 13.5767H137.67V12.3636H138.803V20.2188C138.803 20.875 138.654 21.4086 138.356 21.8196C138.061 22.2339 137.663 22.5372 137.162 22.7294C136.665 22.925 136.112 23.0227 135.502 23.0227ZM135.462 18.8267C135.933 18.8267 136.331 18.719 136.655 18.5036C136.98 18.2881 137.227 17.9782 137.396 17.5739C137.565 17.1695 137.65 16.6856 137.65 16.1222C137.65 15.572 137.567 15.0864 137.401 14.6655C137.235 14.2446 136.99 13.9148 136.665 13.6761C136.34 13.4375 135.939 13.3182 135.462 13.3182C134.965 13.3182 134.551 13.4441 134.219 13.696C133.891 13.9479 133.644 14.286 133.479 14.7102C133.316 15.1345 133.235 15.6051 133.235 16.1222C133.235 16.6525 133.318 17.1214 133.483 17.5291C133.653 17.9335 133.901 18.2517 134.229 18.4837C134.561 18.7124 134.972 18.8267 135.462 18.8267ZM144.153 20.1591C143.417 20.1591 142.782 19.9967 142.248 19.6719C141.718 19.3438 141.309 18.8864 141.02 18.2997C140.735 17.7098 140.593 17.0237 140.593 16.2415C140.593 15.4593 140.735 14.7699 141.02 14.1733C141.309 13.5734 141.71 13.1061 142.224 12.7713C142.741 12.4332 143.344 12.2642 144.033 12.2642C144.431 12.2642 144.824 12.3305 145.211 12.4631C145.599 12.5956 145.952 12.8111 146.27 13.1094C146.589 13.4044 146.842 13.7955 147.031 14.2827C147.22 14.7699 147.314 15.3698 147.314 16.0824V16.5795H141.428V15.5653H146.121C146.121 15.1345 146.035 14.75 145.863 14.4119C145.694 14.0739 145.452 13.8071 145.137 13.6115C144.825 13.416 144.457 13.3182 144.033 13.3182C143.566 13.3182 143.162 13.4342 142.82 13.6662C142.482 13.8949 142.222 14.1932 142.04 14.5611C141.857 14.929 141.766 15.3234 141.766 15.7443V16.4205C141.766 16.9972 141.866 17.486 142.064 17.8871C142.267 18.2848 142.547 18.5881 142.905 18.7969C143.263 19.0024 143.679 19.1051 144.153 19.1051C144.461 19.1051 144.739 19.062 144.988 18.9759C145.24 18.8864 145.457 18.7538 145.639 18.5781C145.821 18.3991 145.962 18.1771 146.062 17.9119L147.195 18.2301C147.076 18.6146 146.875 18.9527 146.594 19.2443C146.312 19.5327 145.964 19.758 145.55 19.9205C145.135 20.0795 144.67 20.1591 144.153 20.1591ZM154.508 14.0739L153.454 14.3722C153.388 14.1965 153.29 14.0258 153.161 13.8601C153.035 13.6911 152.863 13.5518 152.644 13.4425C152.425 13.3331 152.145 13.2784 151.804 13.2784C151.336 13.2784 150.947 13.3861 150.635 13.6016C150.327 13.8137 150.173 14.0838 150.173 14.4119C150.173 14.7036 150.279 14.9339 150.491 15.103C150.703 15.272 151.035 15.4129 151.486 15.5256L152.619 15.804C153.302 15.9697 153.811 16.2232 154.145 16.5646C154.48 16.9027 154.648 17.3385 154.648 17.8722C154.648 18.3097 154.522 18.7008 154.27 19.0455C154.021 19.3902 153.673 19.6619 153.226 19.8608C152.778 20.0597 152.258 20.1591 151.665 20.1591C150.886 20.1591 150.241 19.9901 149.731 19.652C149.22 19.3139 148.897 18.8201 148.761 18.1705L149.875 17.892C149.981 18.303 150.181 18.6113 150.476 18.8168C150.775 19.0223 151.164 19.125 151.645 19.125C152.192 19.125 152.626 19.009 152.947 18.777C153.272 18.5417 153.434 18.2599 153.434 17.9318C153.434 17.6667 153.342 17.4446 153.156 17.2656C152.97 17.0833 152.685 16.9474 152.301 16.858L151.028 16.5597C150.329 16.3939 149.815 16.1371 149.487 15.7891C149.162 15.4377 149 14.9986 149 14.4716C149 14.0407 149.121 13.6596 149.363 13.3281C149.608 12.9967 149.941 12.7365 150.362 12.5476C150.786 12.3587 151.267 12.2642 151.804 12.2642C152.559 12.2642 153.153 12.4299 153.584 12.7614C154.018 13.0928 154.326 13.5303 154.508 14.0739Z" fill="#333333"/>
</svg>
